<svg ed:name="Page-1" viewBox="0 0 950 336" xmlns:ev="http://www.w3.org/2001/xml-events" xmlns="http://www.w3.org/2000/svg" width="950" ed:hSpacing="30" xmlns:xlink="http://www.w3.org/1999/xlink" height="336" ed:vSpacing="30" id="page100" xmlns:ed="https://www.edrawsoft.cn/xml/2017/SVGExtensions/"><style type="text/css"><![CDATA[
g[ed\:togtopicid],g[ed\:hyperlink],g[ed\:comment],g[ed\:note] {cursor:pointer;}
g[id] {-moz-user-select: none;-ms-user-select: none;user-select: none;}
svg text::selection,svg tspan::selection{background-color: #4285f4;color: #ffffff;fill: #ffffff;}
.st4 {fill:#000000;font-family:微软雅黑;font-size:10pt}
.st3 {fill:#303030;font-family:微软雅黑;font-size:10pt}
.st2 {fill:#303030;font-family:微软雅黑;font-size:14pt;font-weight:bold}
.st1 {fill:#ffffff;font-family:微软雅黑;font-size:18pt;font-weight:bold}
]]></style><defs><linearGradient y1="0%" x1="0%" y2="100%" x2="0%" id="lg1"><stop stop-color="#ffffff" offset="0"/><stop stop-color="#f0f5f0" offset="0.25"/><stop stop-color="#e1ebe1" offset="0.75"/><stop stop-color="#c8d7c8" offset="1"/></linearGradient></defs><rect y="0" x="0" width="950" fill="#ffffff" height="336"/><path stroke="#00af54" ed:parentid="106,108,110,112,115" stroke-width="2" ed:type="summary" stroke-linejoin="round" transform="matrix(1,0,0,1,25,263)" ed:idlist="106,108,110,112,115" d="M0,0.1C0,6,27.2,5.9,27.2,5.9L192.2,5.9C192.2,5.9,215.5,6.9,215.5,12C216.5,6.9,238.8,5.9,238.8,5.9L403.8,5.9C403.8,5.9,431,5.8,431,0" fill="none" id="134"/><path stroke="#00af54" ed:parentid="117" stroke-width="2" ed:type="summary" stroke-linejoin="round" transform="matrix(1,0,0,1,474,263)" ed:idlist="117" d="M0,0.1C0,6,4.8,5.9,4.8,5.9L33.6,5.9C33.6,5.9,37.7,6.9,37.7,12C37.9,6.9,41.8,5.9,41.8,5.9L70.6,5.9C70.6,5.9,75.4,5.8,75.4,0" fill="none" id="136"/><path stroke="#00af54" ed:parentid="119,121,123,125" stroke-width="2" ed:type="summary" stroke-linejoin="round" transform="matrix(1,0,0,1,583,263)" ed:idlist="119,125,121,123" d="M0,0.1C0,6,21.6,5.9,21.6,5.9L152.6,5.9C152.6,5.9,171.1,6.9,171.1,12C171.8,6.9,189.5,5.9,189.5,5.9L320.5,5.9C320.5,5.9,342.1,5.8,342.1,0" fill="none" id="138"/><path stroke="#454545" ed:parentid="101" stroke-width="3" stroke-linejoin="round" transform="matrix(1,0,0,1,382,117)" stroke-linecap="round" d="M93,-30L93,-2.9L-87,-2.9C-90.3,-2.9,-93,-0.2,-93,3.1L-93,30" ed:tosuperid="102" fill="none" id="103"/><path stroke="#454545" ed:parentid="101" stroke-width="3" stroke-linejoin="round" transform="matrix(1,0,0,1,615,117)" stroke-linecap="round" d="M-139.6,-30L-139.6,-2.9L133.6,-2.9C136.9,-2.9,139.6,-0.2,139.6,3.1L139.6,30" ed:tosuperid="104" fill="none" id="105"/><path stroke="#454545" ed:parentid="102" stroke-linejoin="round" transform="matrix(1,0,0,1,176,211)" stroke-linecap="round" d="M113.2,-22.5L113.2,0.1L-107.2,0.1C-110.5,0.1,-113.2,2.8,-113.2,6.1L-113.2,22.5" ed:tosuperid="106" fill="none" id="107"/><path stroke="#454545" ed:parentid="102" stroke-linejoin="round" transform="matrix(1,0,0,1,220,211)" stroke-linecap="round" d="M68.8,0.1L-62.8,0.1C-66.1,0.1,-68.8,2.8,-68.8,6.1L-68.8,22.5" ed:tosuperid="108" fill="none" id="109"/><path stroke="#454545" ed:parentid="102" stroke-linejoin="round" transform="matrix(1,0,0,1,265,211)" stroke-linecap="round" d="M24.3,0.1L-18.3,0.1C-21.6,0.1,-24.3,2.8,-24.3,6.1L-24.3,22.5" ed:tosuperid="110" fill="none" id="111"/><path stroke="#454545" ed:parentid="102" stroke-linejoin="round" transform="matrix(1,0,0,1,309,211)" stroke-linecap="round" d="M-20.1,0.1L14.1,0.1C17.5,0.1,20.1,2.8,20.1,6.1L20.1,22.5" ed:tosuperid="112" fill="none" id="113"/><path stroke="#454545" ed:parentid="102" stroke-linejoin="round" transform="matrix(1,0,0,1,354,211)" stroke-linecap="round" d="M-64.6,0.1L58.6,0.1C61.9,0.1,64.6,2.8,64.6,6.1L64.6,22.5" ed:tosuperid="115" fill="none" id="116"/><path stroke="#454545" ed:parentid="102" stroke-linejoin="round" transform="matrix(1,0,0,1,400,211)" stroke-linecap="round" d="M-111.1,0.1L105.1,0.1C108.4,0.1,111.1,2.8,111.1,6.1L111.1,22.5" ed:tosuperid="117" fill="none" id="118"/><path stroke="#454545" ed:parentid="104" stroke-linejoin="round" transform="matrix(1,0,0,1,688,211)" stroke-linecap="round" d="M66.7,-22.5L66.7,0.1L-60.7,0.1C-64,0.1,-66.7,2.8,-66.7,6.1L-66.7,22.5" ed:tosuperid="119" fill="none" id="120"/><path stroke="#454545" ed:parentid="104" stroke-linejoin="round" transform="matrix(1,0,0,1,732,211)" stroke-linecap="round" d="M22.2,0.1L-16.2,0.1C-19.5,0.1,-22.2,2.8,-22.2,6.1L-22.2,22.5" ed:tosuperid="121" fill="none" id="122"/><path stroke="#454545" ed:parentid="104" stroke-linejoin="round" transform="matrix(1,0,0,1,777,211)" stroke-linecap="round" d="M-22.2,0.1L16.2,0.1C19.5,0.1,22.2,2.8,22.2,6.1L22.2,22.5" ed:tosuperid="123" fill="none" id="124"/><path stroke="#454545" ed:parentid="104" stroke-linejoin="round" transform="matrix(1,0,0,1,821,211)" stroke-linecap="round" d="M-66.7,0.1L60.7,0.1C64,0.1,66.7,2.8,66.7,6.1L66.7,22.5" ed:tosuperid="125" fill="none" id="126"/><g ed:topictype="mainidea" ed:width="141" ed:layout="bottom" ed:height="64" transform="matrix(1,0,0,1,405,23)" id="101"><path stroke="#00af54" stroke-width="3" stroke-linejoin="round" d="M0,0L141,0L141,64L0,64L0,0z" fill="#00af54"/><text class="st1"><tspan style="white-space:pre" y="40.7" x="21">项目说明</tspan></text></g><g ed:parentid="101" ed:width="113.6" ed:height="41.8" transform="matrix(1,0,0,1,232,147)" id="102"><path stroke="#454545" stroke-width="2" stroke-linejoin="round" d="M0,0L113.6,0L113.6,41.8L0,41.8L0,0z" fill="#ffffff"/><text class="st2"><tspan style="white-space:pre" y="27.6" x="18">基本功能</tspan></text></g><g ed:parentid="101" ed:width="113.6" ed:height="41.8" transform="matrix(1,0,0,1,697,147)" id="104"><path stroke="#454545" stroke-width="2" stroke-linejoin="round" d="M0,0L113.6,0L113.6,41.8L0,41.8L0,0z" fill="#ffffff"/><text class="st2"><tspan style="white-space:pre" y="27.6" x="18">拓展功能</tspan></text></g><g ed:parentid="102" ed:width="75.40000000000001" ed:height="24.4" transform="matrix(1,0,0,1,25,234)" id="106"><path stroke="#454545" stroke-linejoin="round" d="M0,0L75.4,0L75.4,24.4L0,24.4L0,0z" fill="#ffffff"/><text class="st3"><tspan style="white-space:pre" y="16.4" x="9">注册登录</tspan></text></g><g ed:parentid="102" ed:width="75.40000000000001" ed:height="24.4" transform="matrix(1,0,0,1,114,234)" id="108"><path stroke="#454545" stroke-linejoin="round" d="M0,0L75.4,0L75.4,24.4L0,24.4L0,0z" fill="#ffffff"/><text class="st3"><tspan style="white-space:pre" y="16.4" x="9">智能抠图</tspan></text></g><g ed:parentid="102" ed:width="75.40000000000001" ed:height="24.4" transform="matrix(1,0,0,1,203,234)" id="110"><path stroke="#454545" stroke-linejoin="round" d="M0,0L75.4,0L75.4,24.4L0,24.4L0,0z" fill="#ffffff"/><text class="st3"><tspan style="white-space:pre" y="16.4" x="9">自动换底</tspan></text></g><g ed:parentid="102" ed:width="75.40000000000001" ed:height="24.4" transform="matrix(1,0,0,1,292,234)" id="112"><path stroke="#454545" stroke-linejoin="round" d="M0,0L75.4,0L75.4,24.4L0,24.4L0,0z" fill="#ffffff"/><text class="st3"><tspan style="white-space:pre" y="16.4" x="9">上传下载</tspan></text></g><g ed:parentid="102" ed:width="75.40000000000001" ed:height="24.4" transform="matrix(1,0,0,1,381,234)" id="115"><path stroke="#454545" stroke-linejoin="round" d="M0,0L75.4,0L75.4,24.4L0,24.4L0,0z" fill="#ffffff"/><text class="st3"><tspan style="white-space:pre" y="16.4" x="9">规格选择</tspan></text></g><g ed:parentid="102" ed:width="75.40000000000001" ed:height="24.4" transform="matrix(1,0,0,1,474,234)" id="117"><path stroke="#454545" stroke-linejoin="round" d="M0,0L75.4,0L75.4,24.4L0,24.4L0,0z" fill="#ffffff"/><text class="st3"><tspan style="white-space:pre" y="16.4" x="9">后台管理</tspan></text></g><g ed:parentid="104" ed:width="75.40000000000001" ed:height="24.4" transform="matrix(1,0,0,1,583,234)" id="119"><path stroke="#454545" stroke-linejoin="round" d="M0,0L75.4,0L75.4,24.4L0,24.4L0,0z" fill="#ffffff"/><text class="st3"><tspan style="white-space:pre" y="16.4" x="9">图像增强</tspan></text></g><g ed:parentid="104" ed:width="75.40000000000001" ed:height="24.4" transform="matrix(1,0,0,1,672,234)" id="121"><path stroke="#454545" stroke-linejoin="round" d="M0,0L75.4,0L75.4,24.4L0,24.4L0,0z" fill="#ffffff"/><text class="st3"><tspan style="white-space:pre" y="16.4" x="9">一键美颜</tspan></text></g><g ed:parentid="104" ed:width="75.40000000000001" ed:height="24.4" transform="matrix(1,0,0,1,761,234)" id="123"><path stroke="#454545" stroke-linejoin="round" d="M0,0L75.4,0L75.4,24.4L0,24.4L0,0z" fill="#ffffff"/><text class="st3"><tspan style="white-space:pre" y="16.4" x="9">人脸检测</tspan></text></g><g ed:parentid="104" ed:width="75.40000000000001" ed:height="24.4" transform="matrix(1,0,0,1,850,234)" id="125"><path stroke="#454545" stroke-linejoin="round" d="M0,0L75.4,0L75.4,24.4L0,24.4L0,0z" fill="#ffffff"/><text class="st3"><tspan style="white-space:pre" y="16.4" x="9">节日头像</tspan></text></g><g ed:parentid="134" ed:width="83.72799999999999" ed:layout="bottom" ed:height="29.4" transform="matrix(1,0,0,1,199,284)" id="135"><path stroke="#00af54" stroke-width="2" stroke-linejoin="round" d="M14.7,0L69,0C77.1,0,83.7,6.6,83.7,14.7C83.7,22.8,77.1,29.4,69,29.4L14.7,29.4C6.6,29.4,0,22.8,0,14.7C0,6.6,6.6,0,14.7,0z" fill="#ffffff"/><text class="st4"><tspan style="white-space:pre" y="18.9" x="13">普通用户</tspan></text></g><g ed:parentid="136" ed:width="83.72799999999999" ed:layout="bottom" ed:height="29.4" transform="matrix(1,0,0,1,470,284)" id="137"><path stroke="#00af54" stroke-width="2" stroke-linejoin="round" d="M14.7,0L69,0C77.1,0,83.7,6.6,83.7,14.7C83.7,22.8,77.1,29.4,69,29.4L14.7,29.4C6.6,29.4,0,22.8,0,14.7C0,6.6,6.6,0,14.7,0z" fill="#ffffff"/><text class="st4"><tspan style="white-space:pre" y="18.9" x="13">管理人员</tspan></text></g><g ed:parentid="138" ed:width="83.72799999999999" ed:layout="bottom" ed:height="29.4" transform="matrix(1,0,0,1,712,284)" id="139"><path stroke="#00af54" stroke-width="2" stroke-linejoin="round" d="M14.7,0L69,0C77.1,0,83.7,6.6,83.7,14.7C83.7,22.8,77.1,29.4,69,29.4L14.7,29.4C6.6,29.4,0,22.8,0,14.7C0,6.6,6.6,0,14.7,0z" fill="#ffffff"/><text class="st4"><tspan style="white-space:pre" y="18.9" x="13">普通用户</tspan></text></g><symbol id="plus"><path d="M11,6C11,8.8,8.8,11,6,11C3.2,11,1,8.8,1,6C1,3.2,3.2,1,6,1C8.8,1,11,3.2,11,6z" fill="url(#lg1)"/><path stroke="#46a000" stroke-width="0.7" d="M11,6C11,8.8,8.8,11,6,11C3.2,11,1,8.8,1,6C1,3.2,3.2,1,6,1C8.8,1,11,3.2,11,6zM3,6L9,6M6,3L6,9" fill="none"/></symbol><symbol id="minus"><path d="M11,6C11,8.8,8.8,11,6,11C3.2,11,1,8.8,1,6C1,3.2,3.2,1,6,1C8.8,1,11,3.2,11,6z" fill="url(#lg1)"/><path stroke="#46a000" stroke-width="0.7" d="M11,6C11,8.8,8.8,11,6,11C3.2,11,1,8.8,1,6C1,3.2,3.2,1,6,1C8.8,1,11,3.2,11,6zM3,6L9,6" fill="none"/></symbol><g transform="translate(469,88)" ed:togtopicid="101"><use xlink:href="#minus"/></g><g transform="translate(283,190)" ed:togtopicid="102"><use xlink:href="#minus"/></g><g transform="translate(748,190)" ed:togtopicid="104"><use xlink:href="#minus"/></g></svg>